 http://www.cbtorrents.com

for daily release update visit here ~>>  http://www.cbtorrents.com/forumdisplay.php?392-Bigg-Boss-Season-4

screenshots & Info ~> http://www.cbtorrents.com/showthread.php?6482-Bigg-Boss-Season-4-Episode-28-30-October-2010-XviD-MP3-Team-CBTV


Info

ipper                           : snaink

General

Format                           : AVI
Format/Info                      : Audio Video Interleave
File size                        : 298 MiB
Duration                         : 51mn 45s
Overall bit rate                 : 805 Kbps

Video
Format                           : MPEG-4 Visual
Format profile                   : Advanced Simple@L5
Format settings, BVOP            : Yes
Format settings, QPel            : No
Format settings, GMC             : No warppoints
Format settings, Matrix          : Default (H.263)
Codec ID                         : XVID
Codec ID/Hint                    : XviD
Duration                         : 51mn 45s
Bit rate                         : 699 Kbps
Width                            : 512 pixels
Height                           : 384 pixels
Display aspect ratio             : 4:3
Frame rate                       : 25.000 fps
Color space                      : YUV
Chroma subsampling               : 4:2:0
Bit depth                        : 8 bits
Scan type                        : Progressive
Bits/(Pixel*Frame)               : 0.142
Stream size                      : 259 MiB (87%)
Writing library                  : XviD 1.2.1 (UTC 2008-12-04)

Audio
Format                           : MPEG Audio
Format version                   : Version 1
Format profile                   : Layer 3
Mode                             : Joint stereo
Mode extension                   : MS Stereo
Codec ID                         : 55
Codec ID/Hint                    : MP3
Duration                         : 51mn 45s
Bit rate mode                    : Constant
Bit rate                         : 96.0 Kbps
Channel(s)                       : 2 channels
Sampling rate                    : 32.0 KHz
Stream size                      : 35.5 MiB (12%)
Alignment                        : Split accross interleaves
Interleave, duration             : 40 ms (1.00 video frame)
Interleave, preload duration     : 500 ms
Writing library                  : LAME3.98r


Downloaded from http://www.cbtorrents.com